#!OML:ASF E:\Style4\Style4.ASF
:FULLY-SPECIFIED
:DEGREES
1071
root 0.484549 16.8402 -0.788733 5.87503 -2.60454 4.41749
lowerback 7.66943 3.04345 4.67658
upperback -1.42212 4.45827 -1.07602
thorax -5.34458 2.03792 -4.27475
lowerneck 2.23652 1.70355 -4.34899
upperneck 9.79327 1.87244 5.72751
head 2.65554 0.942294 2.6613
rclavicle -5.96354e-015 2.06736e-014
rhumerus -88.7123 52.9756 -125.56
rradius 84.6437
rwrist 0.65105
rhand -6.86167 34.2207
rfingers 7.12502
rthumb 19.0039 5.12907
lclavicle -5.96354e-015 2.06736e-014
lhumerus -29.3015 25.909 22.5883
lradius 116.796
lwrist -16.6205
lhand -11.1049 35.054
lfingers 7.12502
lthumb 14.9195 64.4967
rfemur -29.7695 4.08429 11.5913
rtibia 53.9898
rfoot -27.9123 -14.4608
rtoes -15.8908
lfemur -27.3041 -0.713724 -25.6238
ltibia 51.0172
lfoot -28.5233 9.17446
ltoes -16.9353
1072
root 0.485644 16.8373 -0.787553 5.83947 -2.64986 4.41546
lowerback 7.71866 3.06041 4.71616
upperback -1.40499 4.48501 -1.10814
thorax -5.34623 2.04963 -4.33603
lowerneck 2.19595 1.64974 -4.32425
upperneck 9.81693 1.80336 5.69367
head 2.67506 0.908515 2.64584
rclavicle 2.68359e-015 -1.74931e-014
rhumerus -88.6475 52.884 -125.511
rradius 84.6499
rwrist 0.7011
rhand -7.28919 34.3281
rfingers 7.12502
rthumb 18.5927 5.19659
lclavicle 2.68359e-015 -1.74931e-014
lhumerus -29.3973 25.8883 22.7036
lradius 116.457
lwrist -16.6093
lhand -11.0942 35.0656
lfingers 7.12502
lthumb 14.9297 64.5075
rfemur -29.7663 4.11851 11.5906
rtibia 54.0361
rfoot -27.8888 -14.5334
rtoes -16.1592
lfemur -27.2679 -0.658392 -25.6178
ltibia 51.016
lfoot -28.5542 9.00913
ltoes -16.3329
1073
root 0.486131 16.8335 -0.785776 5.80668 -2.69049 4.43892
lowerback 7.76276 3.07297 4.71683
upperback -1.39728 4.50228 -1.13674
thorax -5.35895 2.05739 -4.371
lowerneck 2.21845 1.60124 -4.33672
upperneck 9.78622 1.7415 5.65505
head 2.6642 0.875934 2.63332
rclavicle 1.49089e-014 -2.38542e-015
rhumerus -88.6556 52.8183 -125.491
rradius 84.6774
rwrist 0.703207
rhand -7.89483 34.5145
rfingers 7.12502
rthumb 18.01 5.32832
lclavicle 1.49089e-014 -2.38542e-015
lhumerus -29.4859 25.8315 22.7725
lradius 116.09
lwrist -16.6639
lhand -11.0775 35.2139
lfingers 7.12502
lthumb 14.9458 64.6546
rfemur -29.7634 4.16254 11.5571
rtibia 54.0838
rfoot -27.9145 -14.5225
rtoes -16.1248
lfemur -27.2257 -0.621503 -25.6479
ltibia 51.0112
lfoot -28.5913 8.97765
ltoes -16.2574
1074
root 0.486384 16.8315 -0.782861 5.78605 -2.70228 4.56386
lowerback 7.76881 3.07683 4.59681
upperback -1.3866 4.49332 -1.18183
thorax -5.35719 2.05638 -4.35015
lowerneck 2.27561 1.547 -4.37312
upperneck 9.72592 1.67174 5.61612
head 2.63747 0.838081 2.6238
rclavicle -3.75703e-014 1.03368e-014
rhumerus -88.676 52.7756 -125.495
rradius 84.6723
rwrist 0.664868
rhand -8.21697 34.5427
rfingers 7.12502
rthumb 17.7001 5.32833
lclavicle -3.75703e-014 1.03368e-014
lhumerus -29.5648 25.7796 22.7687
lradius 115.78
lwrist -16.5615
lhand -11.0763 35.2178
lfingers 7.12502
lthumb 14.9469 64.6584
rfemur -29.7574 4.16101 11.4157
rtibia 54.1278
rfoot -27.9298 -14.5413
rtoes -16.2122
lfemur -27.187 -0.583404 -25.8001
ltibia 51.0052
lfoot -28.5782 9.06271
ltoes -16.6109
1075
root 0.485508 16.8329 -0.78044 5.80231 -2.71545 4.60683
lowerback 7.74754 3.08109 4.53376
upperback -1.38523 4.49099 -1.19761
thorax -5.34725 2.0574 -4.32959
lowerneck 2.26973 1.48575 -4.29873
upperneck 9.72428 1.60188 5.45152
head 2.6423 0.801657 2.55361
rclavicle 4.55217e-014 1.59028e-015
rhumerus -88.6952 52.7284 -125.507
rradius 84.6535
rwrist 0.570195
rhand -8.3125 34.5259
rfingers 7.12502
rthumb 17.6081 5.3032
lclavicle 4.55217e-014 1.59028e-015
lhumerus -29.644 25.7655 22.6999
lradius 115.425
lwrist -16.5414
lhand -10.8979 35.0523
lfingers 7.12502
lthumb 15.1188 64.4801
rfemur -29.7758 4.19614 11.3649
rtibia 54.1465
rfoot -27.9806 -14.502
rtoes -15.9715
lfemur -27.1926 -0.566284 -25.8611
ltibia 51.0115
lfoot -28.5713 9.16245
ltoes -16.9286
